<svg width="151" height="151" viewBox="0 0 151 151" fill="none" xmlns="http://www.w3.org/2000/svg">
<g clip-path="url(#clip0_3_126)">
<g filter="url(#filter0_d_3_126)">
<path d="M68.7144 26.0452C69.0485 25.8408 69.4826 25.9106 69.7349 26.2102L95.0943 56.3254C95.2144 56.4683 95.2808 56.6495 95.2808 56.8362V68.7239C95.2804 69.161 94.9259 69.5155 94.4888 69.5159H65.9459L106.22 123.898C106.468 124.232 106.414 124.702 106.098 124.972C105.821 125.208 105.425 125.222 105.135 125.023L105.018 124.925L50.3355 69.2786C50.1902 69.1306 50.1082 68.9313 50.108 68.7239V56.8362L50.1129 56.7551C50.1534 56.3554 50.4906 56.0432 50.9009 56.0432H80.6138L68.398 27.0286C68.246 26.6676 68.3805 26.2497 68.7144 26.0452ZM55.7701 25.9368C56.0321 25.975 56.261 26.1431 56.3746 26.3879C56.504 26.6676 56.4603 26.9973 56.2613 27.2327L45.5328 39.9124C45.3823 40.0902 45.1603 40.1935 44.9273 40.1936H19.9937V56.0432H39.8062C40.2436 56.0436 40.5982 56.3987 40.5982 56.8362V68.7239C40.5978 69.161 40.2434 69.5155 39.8062 69.5159H19.9937V110.726C19.9936 110.936 19.9098 111.138 19.7613 111.286L8.66656 122.381C8.44004 122.608 8.09833 122.675 7.80231 122.553C7.50651 122.43 7.31317 122.141 7.31305 121.821V26.7209L7.31793 26.6399C7.35854 26.2403 7.69571 25.928 8.10602 25.928H55.6558L55.7701 25.9368ZM40.6763 75.0667C40.8578 75.0847 41.0287 75.1651 41.1588 75.2952L86.3306 120.468C86.5573 120.695 86.6251 121.035 86.5025 121.331C86.3798 121.627 86.0906 121.821 85.7701 121.821H72.2984C72.0918 121.821 71.8927 121.74 71.7447 121.596L41.3902 91.9993V109.933C41.3902 110.133 41.3144 110.326 41.1783 110.473L30.8765 121.568C30.6548 121.806 30.3087 121.885 30.0054 121.766C29.7024 121.647 29.5027 121.354 29.5025 121.029V75.8557L29.5074 75.7747C29.548 75.3751 29.8852 75.0628 30.2955 75.0627H40.5982L40.6763 75.0667ZM142.05 75.9788L142.155 75.9866C142.396 76.0225 142.609 76.1681 142.73 76.384C142.868 76.6309 142.863 76.933 142.718 77.176L127.95 102.001L143.435 120.269C143.637 120.507 143.68 120.842 143.545 121.123C143.411 121.405 143.124 121.581 142.812 121.573L128.939 121.254C128.689 121.248 128.456 121.125 128.311 120.921L118.245 106.763H105.068C104.785 106.763 104.523 106.612 104.381 106.367L99.3492 97.6497C99.2077 97.4046 99.2078 97.1018 99.3492 96.8567C99.4907 96.6119 99.7521 96.4615 100.035 96.4612H118.197L123.23 87.7434H93.6949C93.4849 87.7432 93.2828 87.6595 93.1343 87.511L82.0396 76.4163C81.8116 76.1881 81.7451 75.8442 81.8707 75.5471C81.9964 75.2502 82.2895 75.0591 82.6119 75.0637L142.05 75.9788Z" fill="#4F6F52"/>
<path d="M68.7144 26.0452L68.541 25.7616L68.5408 25.7617L68.7144 26.0452ZM69.7349 26.2102L69.9892 25.9961L69.9892 25.9961L69.7349 26.2102ZM95.0943 56.3254L95.3487 56.1115L95.3486 56.1113L95.0943 56.3254ZM95.2808 68.7239L95.6132 68.7242V68.7239H95.2808ZM94.4888 69.5159V69.8483H94.4891L94.4888 69.5159ZM65.9459 69.5159V69.1835C65.8203 69.1835 65.7055 69.2542 65.649 69.3663C65.5925 69.4784 65.604 69.6128 65.6787 69.7137L65.9459 69.5159ZM106.22 123.898L106.488 123.7L106.487 123.7L106.22 123.898ZM106.098 124.972L106.314 125.225L106.314 125.225L106.098 124.972ZM105.135 125.023L104.923 125.278C104.93 125.285 104.939 125.291 104.947 125.297L105.135 125.023ZM105.018 124.925L104.781 125.158C104.789 125.166 104.797 125.173 104.805 125.18L105.018 124.925ZM50.3355 69.2786L50.0983 69.5114L50.0984 69.5116L50.3355 69.2786ZM50.108 68.7239H49.7756V68.7242L50.108 68.7239ZM50.108 56.8362L49.7762 56.8162C49.7758 56.8228 49.7756 56.8295 49.7756 56.8362H50.108ZM50.1129 56.7551L49.7819 56.7216L49.781 56.7351L50.1129 56.7551ZM80.6138 56.0432V56.3756C80.7252 56.3756 80.8292 56.3199 80.8908 56.2271C80.9524 56.1343 80.9634 56.0169 80.9202 55.9142L80.6138 56.0432ZM68.398 27.0286L68.7044 26.8996V26.8996L68.398 27.0286ZM55.7701 25.9368L55.8181 25.6078C55.8106 25.6067 55.8031 25.6059 55.7956 25.6053L55.7701 25.9368ZM56.3746 26.3879L56.6762 26.2483L56.6761 26.2481L56.3746 26.3879ZM56.2613 27.2327L56.5151 27.4474L56.5152 27.4473L56.2613 27.2327ZM45.5328 39.9124L45.279 39.6976L45.279 39.6976L45.5328 39.9124ZM44.9273 40.1936V40.526H44.9275L44.9273 40.1936ZM19.9937 40.1936V39.8612C19.8101 39.8612 19.6613 40.01 19.6613 40.1936H19.9937ZM19.9937 56.0432H19.6613C19.6613 56.2268 19.8101 56.3756 19.9937 56.3756V56.0432ZM39.8062 56.0432L39.8065 55.7108H39.8062V56.0432ZM40.5982 68.7239L40.9306 68.7242V68.7239H40.5982ZM39.8062 69.5159V69.8483H39.8065L39.8062 69.5159ZM19.9937 69.5159V69.1835C19.8101 69.1835 19.6613 69.3323 19.6613 69.5159H19.9937ZM19.9937 110.726L20.3261 110.726V110.726H19.9937ZM19.7613 111.286L19.9963 111.521L19.9964 111.521L19.7613 111.286ZM8.66656 122.381L8.90161 122.616L8.66656 122.381ZM7.80231 122.553L7.67492 122.86L7.6753 122.86L7.80231 122.553ZM7.31305 121.821H6.98064L6.98064 121.821L7.31305 121.821ZM7.31305 26.7209L6.98124 26.701C6.98084 26.7076 6.98064 26.7143 6.98064 26.7209H7.31305ZM7.31793 26.6399L6.98695 26.6063L6.98612 26.6199L7.31793 26.6399ZM55.6558 25.928L55.6813 25.5965C55.6728 25.5959 55.6643 25.5956 55.6558 25.5956V25.928ZM40.6763 75.0667L40.7092 74.7359C40.7038 74.7353 40.6984 74.7349 40.6929 74.7347L40.6763 75.0667ZM41.1588 75.2952L41.3938 75.0601V75.0601L41.1588 75.2952ZM86.3306 120.468L86.0956 120.703H86.0956L86.3306 120.468ZM86.5025 121.331L86.8096 121.459L86.8096 121.458L86.5025 121.331ZM72.2984 121.821L72.2984 122.153H72.2984V121.821ZM71.7447 121.596L71.5126 121.834L71.5127 121.834L71.7447 121.596ZM41.3902 91.9993L41.6223 91.7613C41.5265 91.6679 41.3842 91.641 41.2611 91.693C41.1379 91.7449 41.0578 91.8656 41.0578 91.9993H41.3902ZM41.3902 109.933L41.7226 109.933V109.933H41.3902ZM41.1783 110.473L40.9347 110.247L40.9347 110.247L41.1783 110.473ZM30.8765 121.568L31.1201 121.794L31.1201 121.794L30.8765 121.568ZM30.0054 121.766L29.8838 122.075L29.8839 122.075L30.0054 121.766ZM29.5025 121.029H29.1701L29.1701 121.029L29.5025 121.029ZM29.5025 75.8557L29.1707 75.8357C29.1703 75.8424 29.1701 75.849 29.1701 75.8557H29.5025ZM29.5074 75.7747L29.1764 75.741L29.1756 75.7547L29.5074 75.7747ZM30.2955 75.0627V74.7303H30.2954L30.2955 75.0627ZM40.5982 75.0627L40.6148 74.7307C40.6093 74.7305 40.6037 74.7303 40.5982 74.7303V75.0627ZM142.05 75.9788L142.075 75.6473C142.069 75.6468 142.062 75.6465 142.055 75.6464L142.05 75.9788ZM142.155 75.9866L142.204 75.6578C142.196 75.6566 142.188 75.6557 142.18 75.6551L142.155 75.9866ZM142.73 76.384L143.02 76.2219L143.02 76.2219L142.73 76.384ZM142.718 77.176L143.004 77.346V77.346L142.718 77.176ZM127.95 102.001L127.664 101.831C127.592 101.953 127.604 102.108 127.696 102.216L127.95 102.001ZM143.435 120.269L143.689 120.054V120.054L143.435 120.269ZM143.545 121.123L143.845 121.267L143.845 121.266L143.545 121.123ZM142.812 121.573L142.804 121.906H142.804L142.812 121.573ZM128.939 121.254L128.931 121.586H128.931L128.939 121.254ZM128.311 120.921L128.582 120.729L128.582 120.729L128.311 120.921ZM118.245 106.763L118.516 106.57C118.453 106.483 118.352 106.431 118.245 106.431V106.763ZM105.068 106.763L105.068 107.095H105.068V106.763ZM104.381 106.367L104.094 106.534L104.094 106.534L104.381 106.367ZM99.3492 97.6497L99.0613 97.8158L99.0613 97.8158L99.3492 97.6497ZM99.3492 96.8567L99.0614 96.6903L99.0613 96.6906L99.3492 96.8567ZM100.035 96.4612V96.1288H100.034L100.035 96.4612ZM118.197 96.4612V96.7936C118.316 96.7936 118.425 96.7302 118.485 96.6274L118.197 96.4612ZM123.23 87.7434L123.518 87.9096C123.577 87.8068 123.577 87.68 123.518 87.5772C123.459 87.4744 123.349 87.411 123.23 87.411V87.7434ZM93.6949 87.7434L93.6946 88.0758H93.6949V87.7434ZM93.1343 87.511L93.3694 87.2759L93.1343 87.511ZM82.0396 76.4163L81.8045 76.6512L81.8046 76.6513L82.0396 76.4163ZM81.8707 75.5471L81.5645 75.4176L81.5645 75.4177L81.8707 75.5471ZM82.6119 75.0637L82.617 74.7313L82.6166 74.7313L82.6119 75.0637ZM68.7144 26.0452L68.8879 26.3287C69.0823 26.2098 69.3345 26.2508 69.4807 26.4243L69.7349 26.2102L69.9892 25.9961C69.6307 25.5704 69.0148 25.4717 68.541 25.7616L68.7144 26.0452ZM69.7349 26.2102L69.4807 26.4243L94.84 56.5396L95.0943 56.3254L95.3486 56.1113L69.9892 25.9961L69.7349 26.2102ZM95.0943 56.3254L94.8399 56.5394C94.9099 56.6226 94.9484 56.7282 94.9484 56.8362H95.2808H95.6132C95.6132 56.5709 95.519 56.3139 95.3487 56.1115L95.0943 56.3254ZM95.2808 56.8362H94.9484V68.7239H95.2808H95.6132V56.8362H95.2808ZM95.2808 68.7239L94.9484 68.7236C94.9482 68.9773 94.7423 69.1832 94.4885 69.1835L94.4888 69.5159L94.4891 69.8483C95.1096 69.8477 95.6127 69.3446 95.6132 68.7242L95.2808 68.7239ZM94.4888 69.5159V69.1835H65.9459V69.5159V69.8483H94.4888V69.5159ZM65.9459 69.5159L65.6787 69.7137L105.953 124.096L106.22 123.898L106.487 123.7L66.213 69.318L65.9459 69.5159ZM106.22 123.898L105.953 124.095C106.097 124.29 106.066 124.562 105.882 124.719L106.098 124.972L106.314 125.225C106.763 124.841 106.838 124.175 106.488 123.7L106.22 123.898ZM106.098 124.972L105.882 124.719C105.722 124.856 105.492 124.864 105.323 124.749L105.135 125.023L104.947 125.297C105.359 125.579 105.921 125.561 106.314 125.225L106.098 124.972ZM105.135 125.023L105.348 124.767L105.231 124.67L105.018 124.925L104.805 125.18L104.923 125.278L105.135 125.023ZM105.018 124.925L105.255 124.692L50.5726 69.0456L50.3355 69.2786L50.0984 69.5116L104.781 125.158L105.018 124.925ZM50.3355 69.2786L50.5727 69.0457C50.488 68.9594 50.4405 68.8435 50.4404 68.7236L50.108 68.7239L49.7756 68.7242C49.7758 69.0191 49.8924 69.3017 50.0983 69.5114L50.3355 69.2786ZM50.108 68.7239H50.4404V56.8362H50.108H49.7756V68.7239H50.108ZM50.108 56.8362L50.4398 56.8562L50.4447 56.7751L50.1129 56.7551L49.781 56.7351L49.7762 56.8162L50.108 56.8362ZM50.1129 56.7551L50.4436 56.7886C50.4671 56.5566 50.6632 56.3756 50.9009 56.3756V56.0432V55.7108C50.3179 55.7108 49.8396 56.1542 49.7821 56.7216L50.1129 56.7551ZM50.9009 56.0432V56.3756H80.6138V56.0432V55.7108H50.9009V56.0432ZM80.6138 56.0432L80.9202 55.9142L68.7044 26.8996L68.398 27.0286L68.0916 27.1576L80.3075 56.1722L80.6138 56.0432ZM68.398 27.0286L68.7044 26.8996C68.6161 26.69 68.6942 26.4474 68.8881 26.3286L68.7144 26.0452L68.5408 25.7617C68.0668 26.0521 67.8759 26.6452 68.0916 27.1576L68.398 27.0286ZM55.7701 25.9368L55.7221 26.2657C55.8739 26.2878 56.007 26.3855 56.073 26.5278L56.3746 26.3879L56.6761 26.2481C56.515 25.9007 56.1903 25.6621 55.8181 25.6078L55.7701 25.9368ZM56.3746 26.3879L56.0729 26.5275C56.1483 26.6905 56.1225 26.8819 56.0074 27.0181L56.2613 27.2327L56.5152 27.4473C56.798 27.1127 56.8597 26.6447 56.6762 26.2483L56.3746 26.3879ZM56.2613 27.2327L56.0075 27.018L45.279 39.6976L45.5328 39.9124L45.7865 40.1271L56.5151 27.4474L56.2613 27.2327ZM45.5328 39.9124L45.279 39.6976C45.1915 39.8011 45.0622 39.8611 44.9271 39.8612L44.9273 40.1936L44.9275 40.526C45.2584 40.5258 45.5731 40.3794 45.7865 40.1271L45.5328 39.9124ZM44.9273 40.1936V39.8612H19.9937V40.1936V40.526H44.9273V40.1936ZM19.9937 40.1936H19.6613V56.0432H19.9937H20.3261V40.1936H19.9937ZM19.9937 56.0432V56.3756H39.8062V56.0432V55.7108H19.9937V56.0432ZM39.8062 56.0432L39.806 56.3756C40.0597 56.3758 40.2658 56.582 40.2658 56.8362H40.5982H40.9306C40.9306 56.2154 40.4275 55.7113 39.8065 55.7108L39.8062 56.0432ZM40.5982 56.8362H40.2658V68.7239H40.5982H40.9306V56.8362H40.5982ZM40.5982 68.7239L40.2658 68.7236C40.2656 68.9774 40.0597 69.1833 39.806 69.1835L39.8062 69.5159L39.8065 69.8483C40.427 69.8478 40.9301 69.3446 40.9306 68.7242L40.5982 68.7239ZM39.8062 69.5159V69.1835H19.9937V69.5159V69.8483H39.8062V69.5159ZM19.9937 69.5159H19.6613V110.726H19.9937H20.3261V69.5159H19.9937ZM19.9937 110.726L19.6613 110.726C19.6613 110.847 19.6125 110.965 19.5262 111.051L19.7613 111.286L19.9964 111.521C20.2071 111.311 20.326 111.024 20.3261 110.726L19.9937 110.726ZM19.7613 111.286L19.5262 111.051L8.43152 122.146L8.66656 122.381L8.90161 122.616L19.9963 111.521L19.7613 111.286ZM8.66656 122.381L8.43152 122.146C8.30021 122.277 8.10143 122.317 7.92931 122.246L7.80231 122.553L7.6753 122.86C8.09523 123.034 8.57987 122.938 8.90161 122.616L8.66656 122.381ZM7.80231 122.553L7.9297 122.246C7.75798 122.175 7.64553 122.006 7.64546 121.82L7.31305 121.821L6.98064 121.821C6.98081 122.275 7.25503 122.686 7.67492 122.86L7.80231 122.553ZM7.31305 121.821H7.64546V26.7209H7.31305H6.98064V121.821H7.31305ZM7.31305 26.7209L7.64486 26.7409L7.64974 26.6599L7.31793 26.6399L6.98612 26.6199L6.98124 26.701L7.31305 26.7209ZM7.31793 26.6399L7.64864 26.6735C7.67223 26.4414 7.86847 26.2604 8.10602 26.2604V25.928V25.5956C7.52294 25.5956 7.04486 26.0392 6.98723 26.6063L7.31793 26.6399ZM8.10602 25.928V26.2604H55.6558V25.928V25.5956H8.10602V25.928ZM55.6558 25.928L55.6303 26.2594L55.7446 26.2682L55.7701 25.9368L55.7956 25.6053L55.6813 25.5965L55.6558 25.928ZM40.6763 75.0667L40.6435 75.3974C40.7487 75.4079 40.8481 75.4546 40.9237 75.5302L41.1588 75.2952L41.3938 75.0601C41.2093 74.8756 40.9668 74.7614 40.7092 74.7359L40.6763 75.0667ZM41.1588 75.2952L40.9237 75.5302L86.0956 120.703L86.3306 120.468L86.5657 120.233L41.3938 75.0601L41.1588 75.2952ZM86.3306 120.468L86.0956 120.703C86.2272 120.835 86.2665 121.032 86.1954 121.204L86.5025 121.331L86.8096 121.458C86.9837 121.038 86.8873 120.555 86.5657 120.233L86.3306 120.468ZM86.5025 121.331L86.1954 121.204C86.1242 121.376 85.9562 121.488 85.7701 121.488V121.821V122.153C86.225 122.153 86.6354 121.879 86.8096 121.459L86.5025 121.331ZM85.7701 121.821V121.488H72.2984V121.821V122.153H85.7701V121.821ZM72.2984 121.821L72.2984 121.488C72.1778 121.488 72.0621 121.441 71.9767 121.358L71.7447 121.596L71.5127 121.834C71.7232 122.039 72.0057 122.153 72.2984 122.153L72.2984 121.821ZM71.7447 121.596L71.9768 121.358L41.6223 91.7613L41.3902 91.9993L41.1581 92.2373L71.5126 121.834L71.7447 121.596ZM41.3902 91.9993H41.0578V109.933H41.3902H41.7226V91.9993H41.3902ZM41.3902 109.933L41.0578 109.933C41.0578 110.049 41.0136 110.162 40.9347 110.247L41.1783 110.473L41.4219 110.699C41.6152 110.491 41.7226 110.217 41.7226 109.933L41.3902 109.933ZM41.1783 110.473L40.9347 110.247L30.6329 121.341L30.8765 121.568L31.1201 121.794L41.4219 110.699L41.1783 110.473ZM30.8765 121.568L30.633 121.341C30.5044 121.48 30.3032 121.526 30.1269 121.456L30.0054 121.766L29.8839 122.075C30.3142 122.244 30.8052 122.133 31.1201 121.794L30.8765 121.568ZM30.0054 121.766L30.1271 121.457C29.951 121.387 29.835 121.217 29.8349 121.028L29.5025 121.029L29.1701 121.029C29.1703 121.491 29.4539 121.906 29.8838 122.075L30.0054 121.766ZM29.5025 121.029H29.8349V75.8557H29.5025H29.1701V121.029H29.5025ZM29.5025 75.8557L29.8343 75.8757L29.8392 75.7946L29.5074 75.7747L29.1756 75.7547L29.1707 75.8357L29.5025 75.8557ZM29.5074 75.7747L29.8381 75.8083C29.8617 75.5762 30.0579 75.3952 30.2955 75.3952L30.2955 75.0627L30.2954 74.7303C29.7124 74.7304 29.2343 75.1739 29.1767 75.741L29.5074 75.7747ZM30.2955 75.0627V75.3952H40.5982V75.0627V74.7303H30.2955V75.0627ZM40.5982 75.0627L40.5816 75.3947L40.6597 75.3986L40.6763 75.0667L40.6929 74.7347L40.6148 74.7307L40.5982 75.0627ZM142.05 75.9788L142.026 76.3102L142.13 76.3181L142.155 75.9866L142.18 75.6551L142.075 75.6473L142.05 75.9788ZM142.155 75.9866L142.106 76.3153C142.246 76.3362 142.37 76.421 142.44 76.5462L142.73 76.384L143.02 76.2219C142.849 75.9153 142.546 75.7088 142.204 75.6578L142.155 75.9866ZM142.73 76.384L142.44 76.5461C142.519 76.6887 142.517 76.8642 142.433 77.0061L142.718 77.176L143.004 77.346C143.209 77.0017 143.216 76.5731 143.02 76.2219L142.73 76.384ZM142.718 77.176L142.433 77.0061L127.664 101.831L127.95 102.001L128.235 102.171L143.004 77.346L142.718 77.176ZM127.95 102.001L127.696 102.216L143.182 120.484L143.435 120.269L143.689 120.054L128.203 101.786L127.95 102.001ZM143.435 120.269L143.182 120.484C143.298 120.622 143.324 120.816 143.245 120.98L143.545 121.123L143.845 121.266C144.036 120.867 143.975 120.392 143.689 120.054L143.435 120.269ZM143.545 121.123L143.246 120.98C143.168 121.143 143.001 121.245 142.82 121.241L142.812 121.573L142.804 121.906C143.247 121.916 143.654 121.666 143.845 121.267L143.545 121.123ZM142.812 121.573L142.82 121.241L128.947 120.922L128.939 121.254L128.931 121.586L142.804 121.906L142.812 121.573ZM128.939 121.254L128.947 120.922C128.801 120.918 128.666 120.847 128.582 120.729L128.311 120.921L128.04 121.114C128.246 121.403 128.577 121.578 128.931 121.586L128.939 121.254ZM128.311 120.921L128.582 120.729L118.516 106.57L118.245 106.763L117.974 106.956L128.04 121.114L128.311 120.921ZM118.245 106.763V106.431H105.068V106.763V107.095H118.245V106.763ZM105.068 106.763L105.068 106.431C104.903 106.43 104.751 106.343 104.669 106.201L104.381 106.367L104.094 106.534C104.295 106.882 104.667 107.095 105.068 107.095L105.068 106.763ZM104.381 106.367L104.669 106.201L99.6371 97.4835L99.3492 97.6497L99.0613 97.8158L104.094 106.534L104.381 106.367ZM99.3492 97.6497L99.6371 97.4835C99.555 97.3413 99.555 97.1652 99.6371 97.0228L99.3492 96.8567L99.0613 96.6906C98.8605 97.0385 98.8605 97.4678 99.0613 97.8158L99.3492 97.6497ZM99.3492 96.8567L99.637 97.023C99.7189 96.8813 99.8705 96.7938 100.035 96.7936L100.035 96.4612L100.034 96.1288C99.6336 96.1292 99.2624 96.3426 99.0614 96.6903L99.3492 96.8567ZM100.035 96.4612V96.7936H118.197V96.4612V96.1288H100.035V96.4612ZM118.197 96.4612L118.485 96.6274L123.518 87.9096L123.23 87.7434L122.942 87.5772L117.909 96.295L118.197 96.4612ZM123.23 87.7434V87.411H93.6949V87.7434V88.0758H123.23V87.7434ZM93.6949 87.7434L93.6952 87.411C93.5732 87.4109 93.4555 87.3621 93.3694 87.2759L93.1343 87.511L92.8993 87.746C93.1101 87.9568 93.3967 88.0756 93.6946 88.0758L93.6949 87.7434ZM93.1343 87.511L93.3694 87.2759L82.2747 76.1812L82.0396 76.4163L81.8046 76.6513L92.8993 87.746L93.1343 87.511ZM82.0396 76.4163L82.2747 76.1813C82.1427 76.0492 82.1038 75.8494 82.1768 75.6765L81.8707 75.5471L81.5645 75.4177C81.3864 75.839 81.4805 76.3271 81.8045 76.6512L82.0396 76.4163ZM81.8707 75.5471L82.1768 75.6767C82.2497 75.5044 82.4199 75.3934 82.6071 75.3961L82.6119 75.0637L82.6166 74.7313C82.1591 74.7248 81.743 74.9959 81.5645 75.4176L81.8707 75.5471ZM82.6119 75.0637L82.6068 75.3961L142.045 76.3111L142.05 75.9788L142.055 75.6464L82.617 74.7313L82.6119 75.0637Z" fill="#2B392B"/>
</g>
<path d="M14.5333 130.707L11.5067 136.493V140H10.2933V136.493L7.25333 130.707H8.6L10.8933 135.413L13.1867 130.707H14.5333ZM18.9998 140.12C18.3153 140.12 17.6931 139.964 17.1331 139.653C16.582 139.342 16.1465 138.902 15.8265 138.333C15.5153 137.756 15.3598 137.089 15.3598 136.333C15.3598 135.587 15.5198 134.929 15.8398 134.36C16.1687 133.782 16.6131 133.342 17.1731 133.04C17.7331 132.729 18.3598 132.573 19.0531 132.573C19.7465 132.573 20.3731 132.729 20.9331 133.04C21.4931 133.342 21.9331 133.778 22.2531 134.347C22.582 134.916 22.7465 135.578 22.7465 136.333C22.7465 137.089 22.5776 137.756 22.2398 138.333C21.9109 138.902 21.462 139.342 20.8931 139.653C20.3242 139.964 19.6931 140.12 18.9998 140.12ZM18.9998 139.053C19.4353 139.053 19.8442 138.951 20.2265 138.747C20.6087 138.542 20.9153 138.236 21.1465 137.827C21.3865 137.418 21.5065 136.92 21.5065 136.333C21.5065 135.747 21.3909 135.249 21.1598 134.84C20.9287 134.431 20.6265 134.129 20.2531 133.933C19.8798 133.729 19.4753 133.627 19.0398 133.627C18.5953 133.627 18.1865 133.729 17.8131 133.933C17.4487 134.129 17.1553 134.431 16.9331 134.84C16.7109 135.249 16.5998 135.747 16.5998 136.333C16.5998 136.929 16.7065 137.431 16.9198 137.84C17.142 138.249 17.4353 138.556 17.7998 138.76C18.1642 138.956 18.5642 139.053 18.9998 139.053ZM30.8218 132.693V140H29.6084V138.92C29.3773 139.293 29.0529 139.587 28.6351 139.8C28.2262 140.004 27.7729 140.107 27.2751 140.107C26.7062 140.107 26.1951 139.991 25.7418 139.76C25.2884 139.52 24.9284 139.164 24.6618 138.693C24.404 138.222 24.2751 137.649 24.2751 136.973V132.693H25.4751V136.813C25.4751 137.533 25.6573 138.089 26.0218 138.48C26.3862 138.862 26.884 139.053 27.5151 139.053C28.164 139.053 28.6751 138.853 29.0484 138.453C29.4218 138.053 29.6084 137.471 29.6084 136.707V132.693H30.8218ZM34.0837 133.88C34.2971 133.462 34.5993 133.138 34.9904 132.907C35.3904 132.676 35.8749 132.56 36.4437 132.56V133.813H36.1237C34.7637 133.813 34.0837 134.551 34.0837 136.027V140H32.8704V132.693H34.0837V133.88ZM44.2924 130.707C45.3057 130.707 46.1813 130.898 46.9191 131.28C47.6657 131.653 48.2346 132.191 48.6257 132.893C49.0257 133.596 49.2257 134.422 49.2257 135.373C49.2257 136.324 49.0257 137.151 48.6257 137.853C48.2346 138.547 47.6657 139.08 46.9191 139.453C46.1813 139.818 45.3057 140 44.2924 140H41.3991V130.707H44.2924ZM44.2924 139C45.4924 139 46.4079 138.684 47.0391 138.053C47.6702 137.413 47.9857 136.52 47.9857 135.373C47.9857 134.218 47.6657 133.316 47.0257 132.667C46.3946 132.018 45.4835 131.693 44.2924 131.693H42.6124V139H44.2924ZM50.3728 136.32C50.3728 135.573 50.5239 134.92 50.8261 134.36C51.1284 133.791 51.5417 133.351 52.0661 133.04C52.5995 132.729 53.1906 132.573 53.8395 132.573C54.4795 132.573 55.035 132.711 55.5061 132.987C55.9773 133.262 56.3284 133.609 56.5595 134.027V132.693H57.7861V140H56.5595V138.64C56.3195 139.067 55.9595 139.422 55.4795 139.707C55.0084 139.982 54.4573 140.12 53.8261 140.12C53.1773 140.12 52.5906 139.96 52.0661 139.64C51.5417 139.32 51.1284 138.871 50.8261 138.293C50.5239 137.716 50.3728 137.058 50.3728 136.32ZM56.5595 136.333C56.5595 135.782 56.4484 135.302 56.2261 134.893C56.0039 134.484 55.7017 134.173 55.3195 133.96C54.9461 133.738 54.5328 133.627 54.0795 133.627C53.6261 133.627 53.2128 133.733 52.8395 133.947C52.4661 134.16 52.1684 134.471 51.9461 134.88C51.7239 135.289 51.6128 135.769 51.6128 136.32C51.6128 136.88 51.7239 137.369 51.9461 137.787C52.1684 138.196 52.4661 138.511 52.8395 138.733C53.2128 138.947 53.6261 139.053 54.0795 139.053C54.5328 139.053 54.9461 138.947 55.3195 138.733C55.7017 138.511 56.0039 138.196 56.2261 137.787C56.4484 137.369 56.5595 136.884 56.5595 136.333ZM66.1299 132.693L61.7299 143.44H60.4766L61.9166 139.92L58.9699 132.693H60.3166L62.6099 138.613L64.8766 132.693H66.1299ZM68.6029 138.32L67.1096 141.907H66.2962L67.2696 138.32H68.6029ZM76.4408 130.707C77.4542 130.707 78.3297 130.898 79.0675 131.28C79.8142 131.653 80.3831 132.191 80.7742 132.893C81.1742 133.596 81.3742 134.422 81.3742 135.373C81.3742 136.324 81.1742 137.151 80.7742 137.853C80.3831 138.547 79.8142 139.08 79.0675 139.453C78.3297 139.818 77.4542 140 76.4408 140H73.5475V130.707H76.4408ZM76.4408 139C77.6408 139 78.5564 138.684 79.1875 138.053C79.8186 137.413 80.1342 136.52 80.1342 135.373C80.1342 134.218 79.8142 133.316 79.1742 132.667C78.5431 132.018 77.6319 131.693 76.4408 131.693H74.7608V139H76.4408ZM86.1612 140.12C85.4768 140.12 84.8546 139.964 84.2946 139.653C83.7435 139.342 83.3079 138.902 82.9879 138.333C82.6768 137.756 82.5212 137.089 82.5212 136.333C82.5212 135.587 82.6812 134.929 83.0012 134.36C83.3301 133.782 83.7746 133.342 84.3346 133.04C84.8946 132.729 85.5212 132.573 86.2146 132.573C86.9079 132.573 87.5346 132.729 88.0946 133.04C88.6546 133.342 89.0946 133.778 89.4146 134.347C89.7435 134.916 89.9079 135.578 89.9079 136.333C89.9079 137.089 89.739 137.756 89.4012 138.333C89.0724 138.902 88.6235 139.342 88.0546 139.653C87.4857 139.964 86.8546 140.12 86.1612 140.12ZM86.1612 139.053C86.5968 139.053 87.0057 138.951 87.3879 138.747C87.7701 138.542 88.0768 138.236 88.3079 137.827C88.5479 137.418 88.6679 136.92 88.6679 136.333C88.6679 135.747 88.5524 135.249 88.3212 134.84C88.0901 134.431 87.7879 134.129 87.4146 133.933C87.0412 133.729 86.6368 133.627 86.2012 133.627C85.7568 133.627 85.3479 133.729 84.9746 133.933C84.6101 134.129 84.3168 134.431 84.0946 134.84C83.8724 135.249 83.7612 135.747 83.7612 136.333C83.7612 136.929 83.8679 137.431 84.0812 137.84C84.3035 138.249 84.5968 138.556 84.9612 138.76C85.3257 138.956 85.7257 139.053 86.1612 139.053ZM95.0632 132.56C95.9521 132.56 96.6721 132.831 97.2232 133.373C97.7743 133.907 98.0499 134.68 98.0499 135.693V140H96.8499V135.867C96.8499 135.138 96.6677 134.582 96.3032 134.2C95.9388 133.809 95.441 133.613 94.8099 133.613C94.1699 133.613 93.6588 133.813 93.2766 134.213C92.9032 134.613 92.7166 135.196 92.7166 135.96V140H91.5032V132.693H92.7166V133.733C92.9566 133.36 93.281 133.071 93.6899 132.867C94.1077 132.662 94.5654 132.56 95.0632 132.56ZM106.699 136.067C106.699 136.298 106.685 136.542 106.659 136.8H100.819C100.863 137.52 101.107 138.084 101.552 138.493C102.005 138.893 102.552 139.093 103.192 139.093C103.716 139.093 104.152 138.973 104.499 138.733C104.854 138.484 105.103 138.156 105.245 137.747H106.552C106.356 138.449 105.965 139.022 105.379 139.467C104.792 139.902 104.063 140.12 103.192 140.12C102.499 140.12 101.876 139.964 101.325 139.653C100.783 139.342 100.356 138.902 100.045 138.333C99.7341 137.756 99.5785 137.089 99.5785 136.333C99.5785 135.578 99.7296 134.916 100.032 134.347C100.334 133.778 100.756 133.342 101.299 133.04C101.85 132.729 102.481 132.573 103.192 132.573C103.885 132.573 104.499 132.724 105.032 133.027C105.565 133.329 105.974 133.747 106.259 134.28C106.552 134.804 106.699 135.4 106.699 136.067ZM105.445 135.813C105.445 135.351 105.343 134.956 105.139 134.627C104.934 134.289 104.654 134.036 104.299 133.867C103.952 133.689 103.565 133.6 103.139 133.6C102.525 133.6 102.001 133.796 101.565 134.187C101.139 134.578 100.894 135.12 100.832 135.813H105.445ZM116.748 140L114.535 136.2H113.068V140H111.855V130.707H114.855C115.557 130.707 116.148 130.827 116.628 131.067C117.117 131.307 117.481 131.631 117.721 132.04C117.961 132.449 118.081 132.916 118.081 133.44C118.081 134.08 117.895 134.644 117.521 135.133C117.157 135.622 116.606 135.947 115.868 136.107L118.201 140H116.748ZM113.068 135.227H114.855C115.513 135.227 116.006 135.067 116.335 134.747C116.664 134.418 116.828 133.982 116.828 133.44C116.828 132.889 116.664 132.462 116.335 132.16C116.015 131.858 115.521 131.707 114.855 131.707H113.068V135.227ZM120.593 131.507C120.362 131.507 120.167 131.427 120.007 131.267C119.847 131.107 119.767 130.911 119.767 130.68C119.767 130.449 119.847 130.253 120.007 130.093C120.167 129.933 120.362 129.853 120.593 129.853C120.816 129.853 121.002 129.933 121.153 130.093C121.313 130.253 121.393 130.449 121.393 130.68C121.393 130.911 121.313 131.107 121.153 131.267C121.002 131.427 120.816 131.507 120.593 131.507ZM121.18 132.693V140H119.967V132.693H121.18ZM126.261 132.573C126.892 132.573 127.444 132.711 127.915 132.987C128.395 133.262 128.75 133.609 128.981 134.027V132.693H130.208V140.16C130.208 140.827 130.066 141.418 129.781 141.933C129.497 142.458 129.088 142.867 128.555 143.16C128.03 143.453 127.417 143.6 126.715 143.6C125.755 143.6 124.955 143.373 124.315 142.92C123.675 142.467 123.297 141.849 123.181 141.067H124.381C124.515 141.511 124.79 141.867 125.208 142.133C125.626 142.409 126.128 142.547 126.715 142.547C127.381 142.547 127.924 142.338 128.341 141.92C128.768 141.502 128.981 140.916 128.981 140.16V138.627C128.741 139.053 128.386 139.409 127.915 139.693C127.444 139.978 126.892 140.12 126.261 140.12C125.612 140.12 125.021 139.96 124.488 139.64C123.964 139.32 123.55 138.871 123.248 138.293C122.946 137.716 122.795 137.058 122.795 136.32C122.795 135.573 122.946 134.92 123.248 134.36C123.55 133.791 123.964 133.351 124.488 133.04C125.021 132.729 125.612 132.573 126.261 132.573ZM128.981 136.333C128.981 135.782 128.87 135.302 128.648 134.893C128.426 134.484 128.124 134.173 127.741 133.96C127.368 133.738 126.955 133.627 126.501 133.627C126.048 133.627 125.635 133.733 125.261 133.947C124.888 134.16 124.59 134.471 124.368 134.88C124.146 135.289 124.035 135.769 124.035 136.32C124.035 136.88 124.146 137.369 124.368 137.787C124.59 138.196 124.888 138.511 125.261 138.733C125.635 138.947 126.048 139.053 126.501 139.053C126.955 139.053 127.368 138.947 127.741 138.733C128.124 138.511 128.426 138.196 128.648 137.787C128.87 137.369 128.981 136.884 128.981 136.333ZM135.885 132.56C136.436 132.56 136.934 132.68 137.378 132.92C137.823 133.151 138.17 133.502 138.418 133.973C138.676 134.444 138.805 135.018 138.805 135.693V140H137.605V135.867C137.605 135.138 137.423 134.582 137.058 134.2C136.694 133.809 136.196 133.613 135.565 133.613C134.925 133.613 134.414 133.813 134.032 134.213C133.658 134.613 133.472 135.196 133.472 135.96V140H132.258V130.133H133.472V133.733C133.712 133.36 134.041 133.071 134.458 132.867C134.885 132.662 135.361 132.56 135.885 132.56ZM142.267 133.693V138C142.267 138.356 142.343 138.609 142.494 138.76C142.645 138.902 142.907 138.973 143.28 138.973H144.174V140H143.08C142.405 140 141.898 139.844 141.56 139.533C141.223 139.222 141.054 138.711 141.054 138V133.693H140.107V132.693H141.054V130.853H142.267V132.693H144.174V133.693H142.267Z" fill="#2B392B"/>
</g>
<defs>
<filter id="filter0_d_3_126" x="4.12193" y="24.0665" width="146.681" height="109.605" filterUnits="userSpaceOnUse" color-interpolation-filters="sRGB">
<feFlood flood-opacity="0" result="BackgroundImageFix"/>
<feColorMatrix in="SourceAlpha" type="matrix" values="0 0 0 0 0 0 0 0 0 0 0 0 0 0 0 0 0 0 127 0" result="hardAlpha"/>
<feOffset dx="1.99446" dy="3.3241"/>
<feGaussianBlur stdDeviation="2.42659"/>
<feComposite in2="hardAlpha" operator="out"/>
<feColorMatrix type="matrix" values="0 0 0 0 0 0 0 0 0 0 0 0 0 0 0 0 0 0 0.25 0"/>
<feBlend mode="normal" in2="BackgroundImageFix" result="effect1_dropShadow_3_126"/>
<feBlend mode="normal" in="SourceGraphic" in2="effect1_dropShadow_3_126" result="shape"/>
</filter>
<clipPath id="clip0_3_126">
<rect width="150.914" height="150.914" fill="white"/>
</clipPath>
</defs>
</svg>
