<svg width="112" height="112" viewBox="0 0 112 112" fill="none" xmlns="http://www.w3.org/2000/svg">
<g filter="url(#filter0_d_5_29)">
<path d="M50.5486 19.1591C50.7942 19.0091 51.113 19.0602 51.2986 19.2802L69.9538 41.4336C70.0423 41.5386 70.0915 41.6722 70.0915 41.8095V50.5547C70.0913 50.8762 69.83 51.1372 69.5085 51.1377H48.5124L78.1384 91.1416L78.196 91.2383C78.3073 91.4717 78.2519 91.7576 78.0486 91.9316C77.845 92.1055 77.5539 92.1158 77.3406 91.9697L77.2536 91.8974L37.0281 50.9629C36.9211 50.8539 36.8612 50.7073 36.8611 50.5547V41.8095L36.8728 41.6924C36.9271 41.4266 37.1623 41.2265 37.4441 41.2265H59.3025L50.3152 19.8828C50.2033 19.6172 50.3028 19.3096 50.5486 19.1591ZM41.0251 19.0791C41.2181 19.107 41.3868 19.2308 41.4704 19.4111C41.5658 19.617 41.533 19.8599 41.3865 20.0332L33.4949 29.3603C33.3841 29.4912 33.221 29.5673 33.0495 29.5674H14.7077V41.2265H29.282C29.6039 41.2266 29.865 41.4876 29.865 41.8095V50.5547C29.8648 50.8764 29.6037 51.1376 29.282 51.1377H14.7077V81.4521C14.7077 81.6066 14.646 81.7549 14.5368 81.8642L6.37474 90.0263C6.20809 90.1929 5.95771 90.2423 5.73997 90.1523C5.52218 90.0621 5.37969 89.85 5.37962 89.6142V19.6562L5.39134 19.539C5.44559 19.2732 5.6808 19.0732 5.96263 19.0732H40.9411L41.0251 19.0791ZM29.9792 55.2295C30.091 55.2519 30.1952 55.3069 30.2771 55.3886L63.5066 88.6181C63.6732 88.7848 63.7236 89.0361 63.6335 89.2539C63.5433 89.4717 63.3303 89.6133 63.0945 89.6133H53.1843C53.0324 89.6132 52.8859 89.5542 52.7771 89.4482L30.448 67.6767V80.8691C30.4479 81.0162 30.3918 81.1578 30.2917 81.2656L22.7126 89.4277C22.5495 89.603 22.2959 89.6607 22.073 89.5732C21.85 89.4855 21.7029 89.2699 21.7029 89.0302V55.8008L21.7146 55.6836C21.7689 55.418 22.0043 55.2178 22.2859 55.2177H29.865L29.9792 55.2295ZM104.495 55.8906L104.572 55.8974C104.749 55.9238 104.906 56.0309 104.995 56.1894C105.084 56.3483 105.093 56.5384 105.022 56.7031L104.987 56.7724L94.1228 75.0341L105.513 88.4726C105.662 88.6477 105.694 88.8935 105.595 89.1006C105.497 89.3077 105.285 89.4379 105.055 89.4326L94.8503 89.1972C94.6666 89.1928 94.4949 89.1019 94.3884 88.9521L86.9831 78.5371H77.2908C77.0827 78.5369 76.8899 78.4253 76.7859 78.2451L73.0827 71.833C72.979 71.6528 72.9789 71.4301 73.0827 71.25C73.1868 71.0699 73.3797 70.9583 73.5876 70.958H86.949L90.6511 64.5459H68.9245C68.7703 64.5457 68.6216 64.484 68.5124 64.375L60.3503 56.2129C60.1828 56.045 60.1329 55.7917 60.2253 55.5732C60.3179 55.355 60.5342 55.2144 60.7712 55.2177L104.495 55.8906Z" fill="#4F6F52"/>
<path d="M50.5486 19.1591L50.4211 18.9505L50.4209 18.9506L50.5486 19.1591ZM51.2986 19.2802L51.4856 19.1227L51.4855 19.1226L51.2986 19.2802ZM69.9538 41.4336L70.1409 41.2761L70.1409 41.2761L69.9538 41.4336ZM70.0915 41.8095H70.3361V41.8095L70.0915 41.8095ZM70.0915 50.5547L70.3361 50.5548V50.5547H70.0915ZM69.5085 51.1377V51.3822H69.5089L69.5085 51.1377ZM48.5124 51.1377V50.8931C48.4201 50.8931 48.3356 50.9452 48.2941 51.0276C48.2525 51.1101 48.261 51.209 48.3159 51.2832L48.5124 51.1377ZM78.1384 91.1416L78.3485 91.0164C78.3443 91.0094 78.3398 91.0026 78.3349 90.996L78.1384 91.1416ZM78.196 91.2383L78.4168 91.1331C78.4135 91.1262 78.41 91.1196 78.4061 91.1131L78.196 91.2383ZM78.0486 91.9316L78.2074 92.1175L78.2076 92.1174L78.0486 91.9316ZM77.3406 91.9697L77.1842 92.1577C77.1901 92.1626 77.1961 92.1672 77.2024 92.1715L77.3406 91.9697ZM77.2536 91.8974L77.0792 92.0688C77.085 92.0747 77.091 92.0802 77.0973 92.0855L77.2536 91.8974ZM37.0281 50.9629L36.8536 51.1342L36.8536 51.1343L37.0281 50.9629ZM36.8611 50.5547H36.6165V50.5548L36.8611 50.5547ZM36.8611 41.8095L36.6178 41.7852C36.6169 41.7933 36.6165 41.8014 36.6165 41.8095H36.8611ZM36.8728 41.6924L36.6332 41.6434C36.6315 41.6515 36.6303 41.6598 36.6295 41.668L36.8728 41.6924ZM59.3025 41.2265V41.4711C59.3844 41.4711 59.4609 41.43 59.5062 41.3618C59.5515 41.2935 59.5596 41.2071 59.5278 41.1316L59.3025 41.2265ZM50.3152 19.8828L50.0898 19.9777V19.9777L50.3152 19.8828ZM41.0251 19.0791L41.0602 18.8371C41.0542 18.8362 41.0482 18.8356 41.0421 18.8351L41.0251 19.0791ZM41.4704 19.4111L41.6923 19.3083L41.6923 19.3082L41.4704 19.4111ZM41.3865 20.0332L41.5731 20.1911L41.5732 20.1911L41.3865 20.0332ZM33.4949 29.3603L33.3082 29.2024V29.2024L33.4949 29.3603ZM33.0495 29.5674V29.8119H33.0496L33.0495 29.5674ZM14.7077 29.5674V29.3228C14.5727 29.3228 14.4632 29.4323 14.4632 29.5674H14.7077ZM14.7077 41.2265H14.4632C14.4632 41.3616 14.5727 41.4711 14.7077 41.4711V41.2265ZM29.282 41.2265L29.282 40.982H29.282V41.2265ZM29.865 41.8095H30.1095V41.8095L29.865 41.8095ZM29.865 50.5547L30.1095 50.5548V50.5547H29.865ZM29.282 51.1377V51.3822H29.282L29.282 51.1377ZM14.7077 51.1377V50.8931C14.5727 50.8931 14.4632 51.0026 14.4632 51.1377H14.7077ZM14.5368 81.8642L14.7098 82.0371L14.7099 82.037L14.5368 81.8642ZM6.37474 90.0263L6.54761 90.1993L6.54765 90.1992L6.37474 90.0263ZM5.73997 90.1523L5.6464 90.3782L5.64654 90.3783L5.73997 90.1523ZM5.37962 89.6142H5.13509L5.13509 89.6143L5.37962 89.6142ZM5.37962 19.6562L5.13631 19.6319C5.1355 19.64 5.13509 19.6481 5.13509 19.6562H5.37962ZM5.39134 19.539L5.15175 19.4901C5.15009 19.4983 5.14885 19.5065 5.14803 19.5147L5.39134 19.539ZM40.9411 19.0732L40.9582 18.8293C40.9525 18.8289 40.9468 18.8287 40.9411 18.8287V19.0732ZM29.9792 55.2295L30.0273 54.9897C30.0197 54.9882 30.0119 54.987 30.0042 54.9862L29.9792 55.2295ZM30.2771 55.3886L30.45 55.2157L30.4499 55.2156L30.2771 55.3886ZM63.5066 88.6181L63.3337 88.791L63.5066 88.6181ZM63.6335 89.2539L63.8594 89.3475L63.8595 89.3473L63.6335 89.2539ZM53.1843 89.6133L53.1842 89.8578H53.1843V89.6133ZM52.7771 89.4482L52.6064 89.6233L52.6064 89.6233L52.7771 89.4482ZM30.448 67.6767L30.6187 67.5016C30.5483 67.433 30.4436 67.4132 30.353 67.4514C30.2624 67.4896 30.2035 67.5784 30.2035 67.6767H30.448ZM30.448 80.8691L30.6925 80.8692V80.8691H30.448ZM30.2917 81.2656L30.4709 81.432L30.471 81.4319L30.2917 81.2656ZM22.7126 89.4277L22.8917 89.5943L22.8918 89.5941L22.7126 89.4277ZM22.073 89.5732L21.9835 89.8008L21.9837 89.8008L22.073 89.5732ZM21.7029 55.8008L21.4596 55.7764C21.4587 55.7845 21.4583 55.7926 21.4583 55.8008H21.7029ZM21.7146 55.6836L21.475 55.6345C21.4734 55.6427 21.4721 55.6509 21.4713 55.6592L21.7146 55.6836ZM22.2859 55.2177V54.9732H22.2858L22.2859 55.2177ZM29.865 55.2177L29.8899 54.9745C29.8816 54.9736 29.8733 54.9732 29.865 54.9732V55.2177ZM104.495 55.8906L104.516 55.647C104.511 55.6465 104.505 55.6462 104.499 55.6461L104.495 55.8906ZM104.572 55.8974L104.608 55.6556C104.603 55.6549 104.598 55.6543 104.594 55.6539L104.572 55.8974ZM104.995 56.1894L105.208 56.0702L105.208 56.0699L104.995 56.1894ZM105.022 56.7031L105.24 56.8137C105.243 56.8089 105.245 56.8041 105.247 56.7992L105.022 56.7031ZM104.987 56.7724L105.197 56.8975C105.2 56.8927 105.203 56.8879 105.205 56.883L104.987 56.7724ZM94.1228 75.0341L93.9126 74.9091C93.8592 74.9989 93.8687 75.1126 93.9362 75.1923L94.1228 75.0341ZM105.513 88.4726L105.327 88.6307H105.327L105.513 88.4726ZM105.595 89.1006L105.816 89.2059L105.816 89.2058L105.595 89.1006ZM105.055 89.4326L105.05 89.677H105.05L105.055 89.4326ZM94.8503 89.1972L94.8445 89.4417H94.8447L94.8503 89.1972ZM94.3884 88.9521L94.1891 89.0938L94.1891 89.0938L94.3884 88.9521ZM86.9831 78.5371L87.1824 78.3954C87.1366 78.3309 87.0623 78.2925 86.9831 78.2925V78.5371ZM77.2908 78.5371L77.2906 78.7816H77.2908V78.5371ZM76.7859 78.2451L76.9976 78.1228L76.9976 78.1228L76.7859 78.2451ZM73.0827 71.833L72.8709 71.955L72.871 71.9553L73.0827 71.833ZM73.0827 71.25L72.871 71.1277L72.8709 71.1278L73.0827 71.25ZM73.5876 70.958V70.7134H73.5873L73.5876 70.958ZM86.949 70.958V71.2025C87.0363 71.2025 87.117 71.1559 87.1607 71.0802L86.949 70.958ZM90.6511 64.5459L90.8629 64.6681C90.9066 64.5925 90.9066 64.4993 90.8629 64.4236C90.8192 64.3479 90.7385 64.3013 90.6511 64.3013V64.5459ZM68.9245 64.5459L68.9243 64.7904H68.9245V64.5459ZM68.5124 64.375L68.3395 64.5479L68.3397 64.548L68.5124 64.375ZM60.3503 56.2129L60.1772 56.3856L60.1774 56.3858L60.3503 56.2129ZM60.2253 55.5732L60.0002 55.4778L60.0001 55.4779L60.2253 55.5732ZM60.7712 55.2177L60.775 54.9732L60.7747 54.9732L60.7712 55.2177ZM50.5486 19.1591L50.676 19.3678C50.8191 19.2804 51.0043 19.3105 51.1116 19.4379L51.2986 19.2802L51.4855 19.1226C51.2218 18.8098 50.7693 18.7378 50.4211 18.9505L50.5486 19.1591ZM51.2986 19.2802L51.1115 19.4378L69.7668 41.5911L69.9538 41.4336L70.1409 41.2761L51.4856 19.1227L51.2986 19.2802ZM69.9538 41.4336L69.7667 41.591C69.8185 41.6525 69.847 41.7305 69.847 41.8096L70.0915 41.8095L70.3361 41.8095C70.336 41.614 70.266 41.4248 70.1409 41.2761L69.9538 41.4336ZM70.0915 41.8095H69.847V50.5547H70.0915H70.3361V41.8095H70.0915ZM70.0915 50.5547L69.847 50.5545C69.8469 50.7409 69.695 50.8929 69.5082 50.8931L69.5085 51.1377L69.5089 51.3822C69.9649 51.3815 70.3358 51.0114 70.3361 50.5548L70.0915 50.5547ZM69.5085 51.1377V50.8931H48.5124V51.1377V51.3822H69.5085V51.1377ZM48.5124 51.1377L48.3159 51.2832L77.9419 91.2871L78.1384 91.1416L78.3349 90.996L48.7089 50.9921L48.5124 51.1377ZM78.1384 91.1416L77.9284 91.2668L77.986 91.3634L78.196 91.2383L78.4061 91.1131L78.3485 91.0164L78.1384 91.1416ZM78.196 91.2383L77.9753 91.3434C78.0398 91.4789 78.0074 91.645 77.8896 91.7458L78.0486 91.9316L78.2076 92.1174C78.4964 91.8701 78.5747 91.4645 78.4168 91.1331L78.196 91.2383ZM78.0486 91.9316L77.8897 91.7457C77.7718 91.8465 77.6026 91.8527 77.4787 91.7679L77.3406 91.9697L77.2024 92.1715C77.5053 92.3788 77.9183 92.3646 78.2074 92.1175L78.0486 91.9316ZM77.3406 91.9697L77.4969 91.7817L77.41 91.7094L77.2536 91.8974L77.0973 92.0855L77.1842 92.1577L77.3406 91.9697ZM77.2536 91.8974L77.4281 91.726L37.2025 50.7915L37.0281 50.9629L36.8536 51.1343L77.0792 92.0688L77.2536 91.8974ZM37.0281 50.9629L37.2025 50.7915C37.1405 50.7284 37.1057 50.6432 37.1056 50.5545L36.8611 50.5547L36.6165 50.5548C36.6167 50.7714 36.7017 50.9795 36.8536 51.1342L37.0281 50.9629ZM36.8611 50.5547H37.1056V41.8095H36.8611H36.6165V50.5547H36.8611ZM36.8611 41.8095L37.1044 41.8339L37.1161 41.7167L36.8728 41.6924L36.6295 41.668L36.6178 41.7852L36.8611 41.8095ZM36.8728 41.6924L37.1124 41.7413C37.1439 41.5871 37.2808 41.4711 37.4441 41.4711V41.2265V40.982C37.0438 40.982 36.7103 41.2661 36.6332 41.6434L36.8728 41.6924ZM37.4441 41.2265V41.4711H59.3025V41.2265V40.982H37.4441V41.2265ZM59.3025 41.2265L59.5278 41.1316L50.5405 19.7879L50.3152 19.8828L50.0898 19.9777L59.0771 41.3214L59.3025 41.2265ZM50.3152 19.8828L50.5405 19.7879C50.4757 19.634 50.5333 19.4552 50.6762 19.3677L50.5486 19.1591L50.4209 18.9506C50.0723 19.164 49.931 19.6004 50.0898 19.9777L50.3152 19.8828ZM41.0251 19.0791L40.9901 19.3211C41.1019 19.3373 41.2 19.4092 41.2486 19.514L41.4704 19.4111L41.6923 19.3082C41.5737 19.0525 41.3344 18.8768 41.0602 18.8371L41.0251 19.0791ZM41.4704 19.4111L41.2486 19.5139C41.3039 19.6334 41.2849 19.7746 41.1998 19.8752L41.3865 20.0332L41.5732 20.1911C41.7811 19.9452 41.8277 19.6006 41.6923 19.3083L41.4704 19.4111ZM41.3865 20.0332L41.1998 19.8752L33.3082 29.2024L33.4949 29.3603L33.6815 29.5183L41.5731 20.1911L41.3865 20.0332ZM33.4949 29.3603L33.3082 29.2024C33.2436 29.2787 33.1486 29.3228 33.0495 29.3228L33.0495 29.5674L33.0496 29.8119C33.2934 29.8118 33.5246 29.7037 33.6815 29.5183L33.4949 29.3603ZM33.0495 29.5674V29.3228H14.7077V29.5674V29.8119H33.0495V29.5674ZM14.7077 29.5674H14.4632V41.2265H14.7077H14.9523V29.5674H14.7077ZM14.7077 41.2265V41.4711H29.282V41.2265V40.982H14.7077V41.2265ZM29.282 41.2265L29.2819 41.4711C29.4689 41.4711 29.6204 41.6227 29.6204 41.8095L29.865 41.8095L30.1095 41.8095C30.1095 41.3525 29.7389 40.9821 29.282 40.982L29.282 41.2265ZM29.865 41.8095H29.6204V50.5547H29.865H30.1095V41.8095H29.865ZM29.865 50.5547L29.6204 50.5545C29.6203 50.7414 29.4686 50.8931 29.2819 50.8931L29.282 51.1377L29.282 51.3822C29.7389 51.3821 30.1092 51.0114 30.1095 50.5548L29.865 50.5547ZM29.282 51.1377V50.8931H14.7077V51.1377V51.3822H29.282V51.1377ZM14.7077 51.1377H14.4632V81.4521H14.7077H14.9523V51.1377H14.7077ZM14.7077 81.4521H14.4632C14.4632 81.5414 14.4275 81.6277 14.3638 81.6915L14.5368 81.8642L14.7099 82.037C14.8645 81.8821 14.9523 81.6718 14.9523 81.4521H14.7077ZM14.5368 81.8642L14.3639 81.6913L6.20183 89.8534L6.37474 90.0263L6.54765 90.1992L14.7098 82.0371L14.5368 81.8642ZM6.37474 90.0263L6.20187 89.8534C6.10537 89.9498 5.96015 89.9787 5.83341 89.9263L5.73997 90.1523L5.64654 90.3783C5.95526 90.5059 6.31081 90.436 6.54761 90.1993L6.37474 90.0263ZM5.73997 90.1523L5.83355 89.9264C5.70665 89.8738 5.62419 89.7505 5.62415 89.6142L5.37962 89.6142L5.13509 89.6143C5.1352 89.9494 5.33772 90.2504 5.6464 90.3782L5.73997 90.1523ZM5.37962 89.6142H5.62415V19.6562H5.37962H5.13509V89.6142H5.37962ZM5.37962 19.6562L5.62294 19.6806L5.63466 19.5634L5.39134 19.539L5.14803 19.5147L5.13631 19.6319L5.37962 19.6562ZM5.39134 19.539L5.63093 19.5879C5.6624 19.4337 5.79927 19.3177 5.96263 19.3177V19.0732V18.8287C5.56233 18.8287 5.22878 19.1127 5.15175 19.4901L5.39134 19.539ZM5.96263 19.0732V19.3177H40.9411V19.0732V18.8287H5.96263V19.0732ZM40.9411 19.0732L40.9241 19.3171L41.0081 19.323L41.0251 19.0791L41.0421 18.8351L40.9582 18.8293L40.9411 19.0732ZM29.9792 55.2295L29.9311 55.4692C29.9963 55.4823 30.057 55.5144 30.1043 55.5617L30.2771 55.3886L30.4499 55.2156C30.3335 55.0994 30.1857 55.0215 30.0273 54.9897L29.9792 55.2295ZM30.2771 55.3886L30.1042 55.5616L63.3337 88.791L63.5066 88.6181L63.6795 88.4452L30.45 55.2157L30.2771 55.3886ZM63.5066 88.6181L63.3337 88.791C63.4306 88.888 63.4597 89.0342 63.4076 89.1604L63.6335 89.2539L63.8595 89.3473C63.9874 89.038 63.9159 88.6816 63.6795 88.4452L63.5066 88.6181ZM63.6335 89.2539L63.4076 89.1603C63.3555 89.2862 63.2319 89.3687 63.0945 89.3687V89.6133V89.8578C63.4286 89.8578 63.7311 89.6572 63.8594 89.3475L63.6335 89.2539ZM63.0945 89.6133V89.3687H53.1843V89.6133V89.8578H63.0945V89.6133ZM53.1843 89.6133L53.1844 89.3687C53.0955 89.3687 53.0104 89.3341 52.9477 89.2731L52.7771 89.4482L52.6064 89.6233C52.7614 89.7743 52.9693 89.8577 53.1842 89.8578L53.1843 89.6133ZM52.7771 89.4482L52.9478 89.2731L30.6187 67.5016L30.448 67.6767L30.2773 67.8518L52.6064 89.6233L52.7771 89.4482ZM30.448 67.6767H30.2035V80.8691H30.448H30.6925V67.6767H30.448ZM30.448 80.8691L30.2035 80.8691C30.2034 80.9538 30.171 81.0362 30.1125 81.0993L30.2917 81.2656L30.471 81.4319C30.6125 81.2794 30.6925 81.0785 30.6925 80.8692L30.448 80.8691ZM30.2917 81.2656L30.1125 81.0992L22.5334 89.2613L22.7126 89.4277L22.8918 89.5941L30.4709 81.432L30.2917 81.2656ZM22.7126 89.4277L22.5336 89.2612C22.4389 89.3629 22.2918 89.3964 22.1623 89.3456L22.073 89.5732L21.9837 89.8008C22.3001 89.925 22.6601 89.8432 22.8917 89.5943L22.7126 89.4277ZM22.073 89.5732L22.1625 89.3457C22.0329 89.2947 21.9474 89.1692 21.9474 89.0302H21.7029H21.4583C21.4583 89.3705 21.6672 89.6763 21.9835 89.8008L22.073 89.5732ZM21.7029 89.0302H21.9474V55.8008H21.7029H21.4583V89.0302H21.7029ZM21.7029 55.8008L21.9462 55.8251L21.9579 55.7079L21.7146 55.6836L21.4713 55.6592L21.4596 55.7764L21.7029 55.8008ZM21.7146 55.6836L21.9541 55.7326C21.9857 55.5785 22.1228 55.4623 22.286 55.4623L22.2859 55.2177L22.2858 54.9732C21.8857 54.9734 21.5522 55.2575 21.475 55.6345L21.7146 55.6836ZM22.2859 55.2177V55.4623H29.865V55.2177V54.9732H22.2859V55.2177ZM29.865 55.2177L29.84 55.461L29.9543 55.4727L29.9792 55.2295L30.0042 54.9862L29.8899 54.9745L29.865 55.2177ZM104.495 55.8906L104.473 56.1342L104.55 56.141L104.572 55.8974L104.594 55.6539L104.516 55.647L104.495 55.8906ZM104.572 55.8974L104.536 56.1393C104.638 56.1546 104.73 56.2168 104.782 56.309L104.995 56.1894L105.208 56.0699C105.082 55.845 104.859 55.693 104.608 55.6556L104.572 55.8974ZM104.995 56.1894L104.781 56.3087C104.833 56.401 104.838 56.5116 104.797 56.607L105.022 56.7031L105.247 56.7992C105.347 56.5652 105.334 56.2956 105.208 56.0702L104.995 56.1894ZM105.022 56.7031L104.804 56.5925L104.769 56.6618L104.987 56.7724L105.205 56.883L105.24 56.8137L105.022 56.7031ZM104.987 56.7724L104.777 56.6474L93.9126 74.9091L94.1228 75.0341L94.3329 75.1592L105.197 56.8975L104.987 56.7724ZM94.1228 75.0341L93.9362 75.1923L105.327 88.6307L105.513 88.4726L105.7 88.3145L94.3093 74.876L94.1228 75.0341ZM105.513 88.4726L105.327 88.6307C105.413 88.7327 105.432 88.8755 105.375 88.9953L105.595 89.1006L105.816 89.2058C105.957 88.9114 105.91 88.5626 105.7 88.3145L105.513 88.4726ZM105.595 89.1006L105.375 88.9952C105.317 89.1155 105.194 89.1912 105.061 89.1881L105.055 89.4326L105.05 89.677C105.376 89.6846 105.676 89.4999 105.816 89.2059L105.595 89.1006ZM105.055 89.4326L105.061 89.1881L94.856 88.9528L94.8503 89.1972L94.8447 89.4417L105.05 89.677L105.055 89.4326ZM94.8503 89.1972L94.8562 88.9528C94.7493 88.9502 94.6494 88.8972 94.5877 88.8104L94.3884 88.9521L94.1891 89.0938C94.3405 89.3066 94.5839 89.4355 94.8445 89.4417L94.8503 89.1972ZM94.3884 88.9521L94.5877 88.8104L87.1824 78.3954L86.9831 78.5371L86.7839 78.6788L94.1891 89.0938L94.3884 88.9521ZM86.9831 78.5371V78.2925H77.2908V78.5371V78.7816H86.9831V78.5371ZM77.2908 78.5371L77.291 78.2925C77.1703 78.2925 77.0581 78.2276 76.9976 78.1228L76.7859 78.2451L76.5741 78.3674C76.7217 78.623 76.995 78.7814 77.2906 78.7816L77.2908 78.5371ZM76.7859 78.2451L76.9976 78.1228L73.2945 71.7107L73.0827 71.833L72.871 71.9553L76.5741 78.3674L76.7859 78.2451ZM73.0827 71.833L73.2946 71.7109C73.2343 71.6062 73.2344 71.4766 73.2946 71.3721L73.0827 71.25L72.8709 71.1278C72.7234 71.3836 72.7236 71.6994 72.8709 71.955L73.0827 71.833ZM73.0827 71.25L73.2945 71.3723C73.3549 71.2677 73.4673 71.2027 73.588 71.2025L73.5876 70.958L73.5873 70.7134C73.2921 70.7139 73.0186 70.8721 72.871 71.1277L73.0827 71.25ZM73.5876 70.958V71.2025H86.949V70.958V70.7134H73.5876V70.958ZM86.949 70.958L87.1607 71.0802L90.8629 64.6681L90.6511 64.5459L90.4393 64.4236L86.7372 70.8357L86.949 70.958ZM90.6511 64.5459V64.3013H68.9245V64.5459V64.7904H90.6511V64.5459ZM68.9245 64.5459L68.9247 64.3013C68.8354 64.3013 68.7487 64.2653 68.6852 64.2019L68.5124 64.375L68.3397 64.548C68.4945 64.7026 68.7051 64.7902 68.9243 64.7904L68.9245 64.5459ZM68.5124 64.375L68.6853 64.2021L60.5232 56.04L60.3503 56.2129L60.1774 56.3858L68.3395 64.5479L68.5124 64.375ZM60.3503 56.2129L60.5234 56.0401C60.4258 55.9423 60.3971 55.7948 60.4505 55.6685L60.2253 55.5732L60.0001 55.4779C59.8687 55.7885 59.9398 56.1477 60.1772 56.3856L60.3503 56.2129ZM60.2253 55.5732L60.4505 55.6687C60.5041 55.5423 60.6298 55.4603 60.7677 55.4622L60.7712 55.2177L60.7747 54.9732C60.4386 54.9684 60.1317 55.1677 60.0002 55.4778L60.2253 55.5732ZM60.7712 55.2177L60.7675 55.4622L104.491 56.1351L104.495 55.8906L104.499 55.6461L60.775 54.9732L60.7712 55.2177Z" fill="#2B392B"/>
</g>
<defs>
<filter id="filter0_d_5_29" x="3.03216" y="17.7038" width="107.902" height="80.6274" filterUnits="userSpaceOnUse" color-interpolation-filters="sRGB">
<feFlood flood-opacity="0" result="BackgroundImageFix"/>
<feColorMatrix in="SourceAlpha" type="matrix" values="0 0 0 0 0 0 0 0 0 0 0 0 0 0 0 0 0 0 127 0" result="hardAlpha"/>
<feOffset dx="1.46717" dy="2.44529"/>
<feGaussianBlur stdDeviation="1.78506"/>
<feComposite in2="hardAlpha" operator="out"/>
<feColorMatrix type="matrix" values="0 0 0 0 0 0 0 0 0 0 0 0 0 0 0 0 0 0 0.25 0"/>
<feBlend mode="normal" in2="BackgroundImageFix" result="effect1_dropShadow_5_29"/>
<feBlend mode="normal" in="SourceGraphic" in2="effect1_dropShadow_5_29" result="shape"/>
</filter>
</defs>
</svg>
